<?xml version="1.0" encoding="UTF-8"?>
<svg xmlns="http://www.w3.org/2000/svg"
     xmlns:xlink="http://www.w3.org/1999/xlink"
     xmlns:gadfly="http://www.gadflyjl.org/ns"
     version="1.2"
     width="200mm" height="160mm" viewBox="0 0 200 160"
     stroke="none"
     fill="#000000"
     stroke-width="0.3"
     font-size="3.88"
>
<defs>
  <marker id="arrow" markerWidth="15" markerHeight="7" refX="5" refY="3.5" orient="auto" markerUnits="strokeWidth">
    <path d="M0,0 L15,3.5 L0,7 z" stroke="context-stroke" fill="context-stroke"/>
  </marker>
</defs>
<g class="plotroot xscalable yscalable" id="img-78a85d3d-1">
  <g font-size="3.88" font-family="'PT Sans','Helvetica Neue','Helvetica',sans-serif" fill="#564A55" stroke="#000000" stroke-opacity="0.000" id="img-78a85d3d-2">
    <g transform="translate(110.86,148.39)">
      <g class="primitive">
        <text text-anchor="middle" dy="0.6em">datetime</text>
      </g>
    </g>
  </g>
  <g class="guide xlabels" font-size="2.82" font-family="'PT Sans Caption','Helvetica Neue','Helvetica',sans-serif" fill="#6C606B" id="img-78a85d3d-3">
    <g transform="translate(28.72,141.72)">
      <g class="primitive">
        <text text-anchor="middle" dy="0.6em">1987</text>
      </g>
    </g>
    <g transform="translate(69.77,141.72)">
      <g class="primitive">
        <text text-anchor="middle" dy="0.6em">1988</text>
      </g>
    </g>
    <g transform="translate(110.92,141.72)">
      <g class="primitive">
        <text text-anchor="middle" dy="0.6em">1989</text>
      </g>
    </g>
    <g transform="translate(151.96,141.72)">
      <g class="primitive">
        <text text-anchor="middle" dy="0.6em">1990</text>
      </g>
    </g>
    <g transform="translate(193,141.72)">
      <g class="primitive">
        <text text-anchor="middle" dy="0.6em">1991</text>
      </g>
    </g>
  </g>
  <g clip-path="url(#img-78a85d3d-4)">
    <g id="img-78a85d3d-5">
      <g pointer-events="visible" fill="#000000" fill-opacity="0.000" stroke="#000000" stroke-opacity="0.000" class="guide background" id="img-78a85d3d-6">
        <g transform="translate(110.86,72.86)" id="img-78a85d3d-7">
          <path d="M-84.14,-67.86 L 84.14 -67.86 84.14 67.86 -84.14 67.86 z" class="primitive"/>
        </g>
      </g>
      <g class="guide ygridlines xfixed" stroke-dasharray="0.5,0.5" stroke-width="0.2" stroke="#D0D0E0" id="img-78a85d3d-8">
        <g transform="translate(110.86,138.72)" id="img-78a85d3d-9">
          <path fill="none" d="M-84.14,0 L 84.14 0" class="primitive"/>
        </g>
        <g transform="translate(110.86,105.79)" id="img-78a85d3d-10">
          <path fill="none" d="M-84.14,0 L 84.14 0" class="primitive"/>
        </g>
        <g transform="translate(110.86,72.86)" id="img-78a85d3d-11">
          <path fill="none" d="M-84.14,0 L 84.14 0" class="primitive"/>
        </g>
        <g transform="translate(110.86,39.93)" id="img-78a85d3d-12">
          <path fill="none" d="M-84.14,0 L 84.14 0" class="primitive"/>
        </g>
        <g transform="translate(110.86,7)" id="img-78a85d3d-13">
          <path fill="none" d="M-84.14,0 L 84.14 0" class="primitive"/>
        </g>
      </g>
      <g class="guide xgridlines yfixed" stroke-dasharray="0.5,0.5" stroke-width="0.2" stroke="#D0D0E0" id="img-78a85d3d-14">
        <g transform="translate(28.72,72.86)" id="img-78a85d3d-15">
          <path fill="none" d="M0,-67.86 L 0 67.86" class="primitive"/>
        </g>
        <g transform="translate(69.77,72.86)" id="img-78a85d3d-16">
          <path fill="none" d="M0,-67.86 L 0 67.86" class="primitive"/>
        </g>
        <g transform="translate(110.92,72.86)" id="img-78a85d3d-17">
          <path fill="none" d="M0,-67.86 L 0 67.86" class="primitive"/>
        </g>
        <g transform="translate(151.96,72.86)" id="img-78a85d3d-18">
          <path fill="none" d="M0,-67.86 L 0 67.86" class="primitive"/>
        </g>
        <g transform="translate(193,72.86)" id="img-78a85d3d-19">
          <path fill="none" d="M0,-67.86 L 0 67.86" class="primitive"/>
        </g>
      </g>
      <g class="plotpanel" id="img-78a85d3d-20">
        <metadata>
          <boundingbox value="26.725000000000023mm 5.0mm 168.275mm 135.715mm"/>
          <unitbox value="1986-12-14T05:06:21.86 20303.685988687695 129304036281 milliseconds -20607.37197737539"/>
        </metadata>
        <g stroke-width="0.3" fill="#000000" fill-opacity="0.000" class="geometry" id="img-78a85d3d-21">
          <g class="color_RGB{N0f8}(0.502,0.0,0.502)" stroke-dasharray="none" stroke="#800080" id="img-78a85d3d-22">
            <g transform="translate(110.81,116.63)" id="img-78a85d3d-23">
              <path fill="none" d="M-82.08,10.36 L -81.97 9.5 -81.86 7.46 -81.74 6.01 -81.63 6.15 -81.52 7.2 -81.41 8.71 -81.29 9.83 -81.18 10.62 -81.07 11.22 -80.96 11.41 -80.84 11.81 -80.73 11.94 -80.62 12.07 -80.51 12.2 -80.39 12.27 -80.28 12.4 -80.17 12.53 -80.06 12.6 -79.94 12.67 -79.83 12.73 -79.72 12.86 -79.61 12.93 -79.5 12.99 -79.38 12.99 -79.27 13.06 -79.16 13.13 -79.05 13.19 -78.93 13.19 -78.82 13.26 -78.71 13.26 -78.6 13.26 -78.48 13.19 -78.37 13.06 -78.26 13.19 -78.15 13.39 -78.03 13.52 -77.92 13.59 -77.81 13.65 -77.7 13.72 -77.58 13.72 -77.47 13.65 -77.36 13.26 -77.25 13.32 -77.13 13.32 -77.02 13.39 -76.91 13.39 -76.8 13.52 -76.68 13.59 -76.57 13.72 -76.46 13.92 -76.35 14.05 -76.23 14.18 -76.12 14.31 -76.01 14.31 -75.9 14.05 -75.78 14.11 -75.67 13.98 -75.56 14.18 -75.45 14.31 -75.33 14.31 -75.22 14.31 -75.11 14.31 -75 14.38 -74.89 14.38 -74.77 14.31 -74.66 14.38 -74.55 14.51 -74.44 14.58 -74.32 14.58 -74.21 14.71 -74.1 14.77 -73.99 14.84 -73.87 14.9 -73.76 15.04 -73.65 15.1 -73.54 15.17 -73.42 15.3 -73.31 15.43 -73.2 15.63 -73.09 15.76 -72.97 15.81 -72.86 15.92 -72.75 16.02 -72.64 16.05 -72.52 16.13 -72.41 16.18 -72.3 16.23 -72.19 16.29 -72.07 16.29 -71.96 15.92 -71.85 15.89 -71.74 15.97 -71.62 15.97 -71.51 16.02 -71.4 16.02 -71.29 16.02 -71.17 16.02 -71.06 16.02 -70.95 16.02 -70.84 16 -70.72 15.97 -70.61 15.95 -70.5 15.92 -70.39 15.87 -70.28 15.92 -70.16 15.87 -70.05 15.76 -69.94 15.71 -69.83 15.6 -69.71 15.71 -69.6 15.81 -69.49 15.87 -69.38 15.87 -69.26 15.92 -69.15 15.97 -69.04 15.97 -68.93 15.97 -68.81 15.92 -68.7 15.84 -68.59 15.81 -68.48 15.68 -68.36 15.6 -68.25 15.43 -68.14 15.17 -68.03 15.1 -67.91 15.1 -67.8 15.23 -67.69 15.3 -67.58 15.37 -67.46 15.5 -67.35 15.54 -67.24 15.6 -67.13 15.63 -67.01 15.68 -66.9 15.76 -66.79 15.81 -66.68 15.92 -66.56 15.97 -66.45 15.97 -66.34 16.02 -66.23 16 -66.11 15.97 -66 15.92 -65.89 15.87 -65.78 15.87 -65.67 15.92 -65.55 15.84 -65.44 15.79 -65.33 15.66 -65.22 15.68 -65.1 15.52 -64.99 15.43 -64.88 15.37 -64.77 15.04 -64.65 14.71 -64.54 14.58 -64.43 14.38 -64.32 13.92 -64.2 13.72 -64.09 13.59 -63.98 11.81 -63.87 9.44 -63.75 9.9 -63.64 9.9 -63.53 9.83 -63.42 9.97 -63.3 10.03 -63.19 9.9 -63.08 9.83 -62.97 9.11 -62.85 5.95 -62.74 3.31 -62.63 3.51 -62.52 4.1 -62.4 4.1 -62.29 4.24 -62.18 4.83 -62.07 5.22 -61.95 6.21 -61.84 6.74 -61.73 8.32 -61.62 8.19 -61.5 8.85 -61.39 7.27 -61.28 5.62 -61.17 4.89 -61.05 4.24 -60.94 3.97 -60.83 3.77 -60.72 1.86 -60.61 0.09 -60.49 -2.09 -60.38 -4.59 -60.27 1.54 -60.16 1.73 -60.04 0.09 -59.93 1.67 -59.82 0.88 -59.71 0.42 -59.59 -0.31 -59.48 -0.84 -59.37 -2.09 -59.26 -3.47 -59.14 -4.19 -59.03 -4.39 -58.92 -4 -58.81 -6.24 -58.69 -10.52 -58.58 -10.52 -58.47 -10.98 -58.36 -9.79 -58.24 -9.07 -58.13 -8.8 -58.02 -8.74 -57.91 -12.69 -57.79 -13.61 -57.68 -12.56 -57.57 -12.36 -57.46 -11.97 -57.34 -11.24 -57.23 -10.91 -57.12 -11.83 -57.01 -14.6 -56.89 -17.76 -56.78 -20.2 -56.67 -22.44 -56.56 -27.84 -56.44 -27.44 -56.33 -25.4 -56.22 -23.49 -56.11 -22.04 -56 -21.05 -55.88 -20.92 -55.77 -21.05 -55.66 -22.9 -55.55 -28.56 -55.43 -31 -55.32 -30.67 -55.21 -29.81 -55.1 -28.56 -54.98 -27.38 -54.87 -26.72 -54.76 -28.82 -54.65 -32.05 -54.53 -30.93 -54.42 -26.39 -54.31 -25.01 -54.2 -20.92 -54.08 -25.2 -53.97 -24.02 -53.86 -23.29 -53.75 -23.03 -53.63 -23.82 -53.52 -29.55 -53.41 -30.93 -53.3 -29.02 -53.18 -26.06 -53.07 -25.33 -52.96 -27.11 -52.85 -29.48 -52.73 -27.05 -52.62 -24.02 -52.51 -22.17 -52.4 -23.69 -52.28 -26.85 -52.17 -29.02 -52.06 -34.82 -51.95 -35.34 -51.83 -33.04 -51.72 -32.05 -51.61 -33.83 -51.5 -35.61 -51.39 -34.36 -51.27 -34.82 -51.16 -33.96 -51.05 -32.05 -50.94 -31.26 -50.82 -32.91 -50.71 -24.81 -50.6 -22.44 -50.49 -20.07 -50.37 -19.54 -50.26 -20.13 -50.15 -21.65 -50.04 -19.6 -49.92 -18.35 -49.81 -16.51 -49.7 -14.53 -49.59 -12.36 -49.47 -9.86 -49.36 -8.74 -49.25 -7.42 -49.14 -5.77 -49.02 -5.12 -48.91 -5.05 -48.8 -4.19 -48.69 -3.73 -48.57 -3.34 -48.46 -3.07 -48.35 -2.15 -48.24 -1.95 -48.12 -1.1 -48.01 -0.57 -47.9 -0.05 -47.79 0.68 -47.67 0.94 -47.56 0.75 -47.45 0.68 -47.34 0.61 -47.22 0.61 -47.11 0.42 -47 -0.11 -46.89 -8.94 -46.78 -8.61 -46.66 -5.97 -46.55 -3.21 -46.44 -2.28 -46.33 -1.49 -46.21 -0.57 -46.1 -1.23 -45.99 -1.49 -45.88 -1.76 -45.76 -3.86 -45.65 -5.45 -45.54 -2.09 -45.43 -1.16 -45.31 -0.64 -45.2 0.81 -45.09 1.86 -44.98 2.52 -44.86 2.92 -44.75 3.45 -44.64 4.24 -44.53 4.63 -44.41 5.09 -44.3 5.49 -44.19 5.62 -44.08 5.95 -43.96 6.21 -43.85 6.47 -43.74 6.61 -43.63 6.8 -43.51 6.94 -43.4 7.13 -43.29 7.46 -43.18 7.73 -43.06 7.92 -42.95 8.06 -42.84 7.92 -42.73 8.32 -42.61 8.71 -42.5 9.04 -42.39 9.37 -42.28 9.57 -42.17 9.57 -42.05 9.57 -41.94 9.64 -41.83 9.64 -41.72 10.03 -41.6 10.36 -41.49 10.49 -41.38 10.62 -41.27 10.69 -41.15 10.76 -41.04 10.89 -40.93 11.08 -40.82 11.15 -40.7 11.22 -40.59 11.28 -40.48 11.35 -40.37 11.48 -40.25 11.55 -40.14 11.68 -40.03 11.68 -39.92 11.74 -39.8 11.81 -39.69 11.88 -39.58 11.94 -39.47 11.94 -39.35 12.07 -39.24 12.14 -39.13 12.2 -39.02 12.27 -38.9 12.4 -38.79 12.47 -38.68 12.6 -38.57 12.73 -38.45 12.86 -38.34 13.13 -38.23 13.26 -38.12 13.39 -38 13.46 -37.89 13.59 -37.78 13.72 -37.67 13.79 -37.55 13.79 -37.44 13.79 -37.33 13.92 -37.22 14.31 -37.11 14.38 -36.99 14.51 -36.88 14.64 -36.77 14.71 -36.66 14.77 -36.54 14.84 -36.43 14.9 -36.32 14.97 -36.21 15.04 -36.09 15.1 -35.98 15.17 -35.87 15.3 -35.76 15.43 -35.64 15.5 -35.53 15.57 -35.42 15.68 -35.31 15.68 -35.19 15.76 -35.08 15.84 -34.97 15.89 -34.86 15.95 -34.74 16.02 -34.63 16.05 -34.52 16.08 -34.41 16.1 -34.29 16.1 -34.18 16.1 -34.07 16 -33.96 15.97 -33.84 16.05 -33.73 16.05 -33.62 16.1 -33.51 16.1 -33.39 16.1 -33.28 16.16 -33.17 16.16 -33.06 16.16 -32.94 16.16 -32.83 16.1 -32.72 16.1 -32.61 16.1 -32.5 16.1 -32.38 16.1 -32.27 16.13 -32.16 16.13 -32.05 16.13 -31.93 16.13 -31.82 16.13 -31.71 16.13 -31.6 16.1 -31.48 16.1 -31.37 16.1 -31.26 16.1 -31.15 16.1 -31.03 15.5 -30.92 14.9 -30.81 15.23 -30.7 15.3 -30.58 15.37 -30.47 15.43 -30.36 15.5 -30.25 15.43 -30.13 15.43 -30.02 15.5 -29.91 15.54 -29.8 15.6 -29.68 15.66 -29.57 15.54 -29.46 15.43 -29.35 15.23 -29.23 15.04 -29.12 14.84 -29.01 14.64 -28.9 14.64 -28.78 14.64 -28.67 14.11 -28.56 13.46 -28.45 13.39 -28.33 13.32 -28.22 13.19 -28.11 12.99 -28 12.93 -27.89 13.13 -27.77 13.39 -27.66 13.46 -27.55 12.67 -27.44 12.4 -27.32 12.99 -27.21 13.26 -27.1 13.59 -26.99 13.85 -26.87 14.25 -26.76 13.72 -26.65 13.32 -26.54 12.6 -26.42 10.16 -26.31 9.24 -26.2 9.31 -26.09 8.91 -25.97 8.78 -25.86 8.78 -25.75 8.52 -25.64 7.66 -25.52 4.1 -25.41 2.46 -25.3 1.67 -25.19 1.93 -25.07 2.85 -24.96 3.25 -24.85 3.77 -24.74 5.36 -24.62 7.2 -24.51 7.66 -24.4 7.13 -24.29 5.82 -24.17 5.36 -24.06 5.82 -23.95 7 -23.84 7.33 -23.72 6.74 -23.61 6.28 -23.5 5.55 -23.39 4.63 -23.28 3.45 -23.16 2.98 -23.05 2.85 -22.94 3.05 -22.83 3.45 -22.71 3.84 -22.6 4.3 -22.49 4.5 -22.38 4.96 -22.26 5.82 -22.15 6.34 -22.04 6.47 -21.93 6.28 -21.81 5.62 -21.7 5.22 -21.59 5.22 -21.48 5.09 -21.36 5.03 -21.25 4.43 -21.14 3.25 -21.03 2.06 -20.91 1.67 -20.8 1.54 -20.69 -1.95 -20.58 -2.15 -20.46 1.07 -20.35 1.01 -20.24 0.35 -20.13 -1.36 -20.01 -7.68 -19.9 -8.61 -19.79 -8.41 -19.68 -7.82 -19.56 -7.03 -19.45 -7.03 -19.34 -6.76 -19.23 -7.03 -19.11 -7.29 -19 -6.7 -18.89 -6.56 -18.78 -6.56 -18.67 -8.41 -18.55 -8.87 -18.44 -6.96 -18.33 -5.12 -18.22 -5.18 -18.1 -7.03 -17.99 -7.55 -17.88 -8.61 -17.77 -5.64 -17.65 -6.7 -17.54 -6.1 -17.43 -7.42 -17.32 -10.45 -17.2 -13.08 -17.09 -20.39 -16.98 -29.15 -16.87 -30.87 -16.75 -29.15 -16.64 -26.32 -16.53 -25.01 -16.42 -27.18 -16.3 -33.83 -16.19 -43.51 -16.08 -51.68 -15.97 -56.29 -15.85 -51.68 -15.74 -46.41 -15.63 -41.54 -15.52 -45.75 -15.4 -50.36 -15.29 -50.36 -15.18 -47.73 -15.07 -44.43 -14.95 -40.94 -14.84 -39.23 -14.73 -38.37 -14.62 -35.54 -14.5 -32.97 -14.39 -30.27 -14.28 -29.15 -14.17 -32.05 -14.06 -34.62 -13.94 -38.31 -13.83 -37.32 -13.72 -34.75 -13.61 -33.24 -13.49 -31.46 -13.38 -30.14 -13.27 -30.14 -13.16 -29.48 -13.04 -30.34 -12.93 -32.71 -12.82 -31.85 -12.71 -31.92 -12.59 -32.97 -12.48 -33.96 -12.37 -33.76 -12.26 -33.5 -12.14 -31.52 -12.03 -31.52 -11.92 -35.15 -11.81 -34.82 -11.69 -34.75 -11.58 -32.71 -11.47 -29.02 -11.36 -24.28 -11.24 -21.25 -11.13 -17.96 -11.02 -14.14 -10.91 -13.15 -10.79 -12.1 -10.68 -11.04 -10.57 -10.25 -10.46 -9.73 -10.34 -9.99 -10.23 -8.74 -10.12 -9.13 -10.01 -9.92 -9.89 -9.99 -9.78 -9.86 -9.67 -10.32 -9.56 -10.71 -9.44 -11.57 -9.33 -12.56 -9.22 -13.41 -9.11 -13.15 -9 -13.81 -8.88 -13.28 -8.77 -11.7 -8.66 -9.27 -8.55 -8.28 -8.43 -6.89 -8.32 -6.76 -8.21 -7.22 -8.1 -8.01 -7.98 -7.88 -7.87 -7.68 -7.76 -7.49 -7.65 -7.42 -7.53 -7.49 -7.42 -8.28 -7.31 -7.49 -7.2 -5.84 -7.08 -4.79 -6.97 -3.14 -6.86 -1.49 -6.75 -0.51 -6.63 0.22 -6.52 0.75 -6.41 1.4 -6.3 2 -6.18 2.46 -6.07 2.72 -5.96 3.05 -5.85 3.25 -5.73 3.51 -5.62 3.77 -5.51 3.97 -5.4 4.17 -5.28 4.63 -5.17 4.89 -5.06 5.16 -4.95 5.36 -4.83 5.49 -4.72 5.62 -4.61 5.82 -4.5 5.62 -4.39 5.36 -4.27 4.89 -4.16 4.1 -4.05 3.51 -3.94 4.56 -3.82 5.29 -3.71 5.75 -3.6 6.34 -3.49 6.47 -3.37 6.61 -3.26 6.61 -3.15 6.74 -3.04 6.8 -2.92 6.94 -2.81 7.07 -2.7 7.2 -2.59 7.33 -2.47 7.53 -2.36 7.92 -2.25 8.45 -2.14 8.78 -2.02 8.98 -1.91 9.24 -1.8 9.57 -1.69 9.83 -1.57 9.9 -1.46 10.03 -1.35 10.03 -1.24 10.23 -1.12 10.36 -1.01 10.56 -0.9 10.69 -0.79 10.95 -0.67 11.08 -0.56 11.15 -0.45 11.22 -0.34 11.35 -0.22 11.41 -0.11 11.48 -0 11.15 0.11 11.68 0.22 11.74 0.34 11.88 0.45 12.01 0.56 12.14 0.67 12.34 0.79 12.47 0.9 12.67 1.01 12.8 1.12 12.93 1.24 13.06 1.35 13.19 1.46 13.32 1.57 13.46 1.69 13.52 1.8 13.65 1.91 13.85 2.02 14.05 2.14 14.11 2.25 14.25 2.36 14.31 2.47 14.44 2.59 14.51 2.7 14.64 2.81 14.71 2.92 14.77 3.04 14.84 3.15 14.97 3.26 14.97 3.37 15.04 3.49 15.1 3.6 14.97 3.71 15.04 3.82 15.1 3.94 15.1 4.05 15.17 4.16 15.23 4.27 15.37 4.39 15.43 4.5 15.54 4.61 15.63 4.72 15.63 4.83 15.66 4.95 15.69 5.06 15.71 5.17 15.71 5.28 15.75 5.4 15.75 5.51 15.81 5.62 15.84 5.73 15.87 5.85 15.87 5.96 15.93 6.07 15.93 6.18 15.93 6.3 15.98 6.41 15.98 6.52 16.04 6.63 16.1 6.75 16.1 6.86 16.16 6.97 16.22 7.08 16.28 7.2 16.28 7.31 16.22 7.42 16.22 7.53 16.28 7.65 16.37 7.76 16.45 7.87 16.51 7.98 16.56 8.1 16.56 8.21 16.54 8.32 16.51 8.43 16.45 8.55 16.43 8.66 16.39 8.77 16.37 8.88 16.34 9 16.28 9.11 16.28 9.22 16.28 9.33 16.25 9.44 16.22 9.56 16.16 9.67 16.02 9.78 15.81 9.89 15.81 10.01 15.84 10.12 15.87 10.23 15.78 10.34 15.93 10.46 16.04 10.57 15.93 10.68 15.84 10.79 15.75 10.91 15.43 11.02 15.6 11.13 15.81 11.24 16.14 11.36 16.16 11.47 16.22 11.58 16.45 11.69 16.56 11.81 16.65 11.92 16.74 12.03 16.87 12.14 16.96 12.26 17.01 12.37 17.12 12.48 17.12 12.59 17.04 12.71 16.87 12.82 16.68 12.93 16.65 13.04 16.62 13.16 16.28 13.27 15.98 13.38 15.81 13.49 15.75 13.61 15.63 13.72 15.43 13.83 15.04 13.94 14.9 14.06 14.77 14.17 14.71 14.28 14.25 14.39 14.05 14.5 14.31 14.62 14.84 14.73 15.23 14.84 15.43 14.95 15.17 15.07 14.77 15.18 13.92 15.29 12.34 15.4 10.82 15.52 8.65 15.63 8.52 15.74 9.18 15.85 10.03 15.97 10.82 16.08 11.41 16.19 13.19 16.3 13.65 16.42 13.52 16.53 13.52 16.64 13.39 16.75 13.19 16.87 12.4 16.98 11.61 17.09 10.16 17.2 8.06 17.32 6.34 17.43 5.75 17.54 5.22 17.65 3.91 17.77 2.19 17.88 0.68 17.99 1.54 18.1 2.92 18.22 2.66 18.33 1.47 18.44 -9.79 18.55 -17.96 18.67 -10.12 18.78 0.75 18.89 2.13 19 3.71 19.11 4.96 19.23 6.21 19.34 7 19.45 7.66 19.56 7.59 19.68 5.42 19.79 4.3 19.9 2.39 20.01 0.94 20.13 1.47 20.24 2.06 20.35 2.66 20.46 1.54 20.58 1.07 20.69 0.22 20.8 -1.23 20.91 -7.09 21.03 -9.13 21.14 -10.65 21.25 -12.82 21.36 -13.48 21.48 -11.24 21.59 -9.33 21.7 -7.88 21.81 -7.68 21.93 -9.33 22.04 -11.31 22.15 -14.53 22.26 -17.56 22.38 -15.98 22.49 -14.14 22.6 -11.9 22.71 -9.46 22.83 -7.42 22.94 -5.71 23.05 -4.66 23.16 -9.99 23.28 -15.26 23.39 -17.96 23.5 -18.35 23.61 -14.53 23.72 -12.56 23.84 -14.8 23.95 -16.38 24.06 -23.62 24.17 -36.93 24.29 -39.23 24.4 -36.53 24.51 -28.96 24.62 -25.01 24.74 -22.63 24.85 -20.13 24.96 -18.81 25.07 -16.71 25.19 -14.67 25.3 -18.81 25.41 -22.5 25.52 -26.52 25.64 -35.61 25.75 -40.15 25.86 -39.23 25.97 -31.79 26.09 -24.15 26.2 -20.99 26.31 -18.88 26.42 -18.95 26.54 -21.38 26.65 -21.65 26.76 -20.46 26.87 -19.6 26.99 -18.81 27.1 -17.56 27.21 -17.56 27.32 -17.23 27.44 -16.84 27.55 -16.51 27.66 -16.11 27.77 -15.59 27.89 -14.07 28 -13.88 28.11 -15.98 28.22 -18.68 28.33 -18.68 28.45 -18.95 28.56 -19.08 28.67 -18.35 28.78 -17.3 28.9 -16.64 29.01 -16.11 29.12 -14.47 29.23 -15.72 29.35 -12.95 29.46 -12.29 29.57 -12.1 29.68 -12.82 29.8 -16.64 29.91 -18.35 30.02 -19.34 30.13 -20.59 30.25 -22.7 30.36 -24.02 30.47 -26.06 30.58 -27.31 30.7 -25.6 30.81 -24.02 30.92 -21.71 31.03 -20.26 31.15 -19.74 31.26 -21.38 31.37 -19.6 31.48 -17.37 31.6 -16.64 31.71 -15.98 31.82 -16.31 31.93 -15.72 32.05 -15.92 32.16 -19.87 32.27 -23.49 32.38 -26.12 32.5 -29.29 32.61 -26.98 32.72 -24.21 32.83 -23.03 32.94 -22.96 33.06 -24.02 33.17 -25.8 33.28 -27.11 33.39 -30.27 33.51 -31.66 33.62 -29.48 33.73 -26.78 33.84 -19.34 33.96 -17.17 34.07 -16.18 34.18 -15.32 34.29 -13.94 34.41 -11.31 34.52 -9.27 34.63 -7.95 34.74 -6.76 34.86 -6.43 34.97 -5.71 35.08 -4.72 35.19 -3.4 35.31 -2.48 35.42 -1.76 35.53 -1.1 35.64 -0.51 35.76 0.02 35.87 0.48 35.98 1.07 36.09 1.6 36.21 2.06 36.32 2.52 36.43 2.66 36.54 2.79 36.66 2.72 36.77 3.05 36.88 3.45 36.99 3.58 37.11 3.84 37.22 4.37 37.33 4.3 37.44 4.63 37.55 5.16 37.67 5.75 37.78 6.15 37.89 6.47 38 6.54 38.12 6.61 38.23 6.74 38.34 6.87 38.45 7.13 38.57 7.4 38.68 7.79 38.79 8.06 38.9 8.19 39.02 8.52 39.13 8.85 39.24 9.04 39.35 9.18 39.47 9.37 39.58 9.44 39.69 9.5 39.8 9.5 39.92 9.31 40.03 8.32 40.14 8.91 40.25 9.5 40.37 9.97 40.48 10.23 40.59 10.62 40.7 10.76 40.82 10.89 40.93 11.02 41.04 11.15 41.15 11.28 41.27 11.35 41.38 11.48 41.49 11.55 41.6 11.68 41.72 11.81 41.83 11.88 41.94 12.07 42.05 12.27 42.17 12.34 42.28 12.34 42.39 12.47 42.5 12.6 42.61 12.73 42.73 12.86 42.84 12.93 42.95 12.99 43.06 13.13 43.18 13.39 43.29 13.52 43.4 13.65 43.51 13.72 43.63 13.79 43.74 13.85 43.85 13.92 43.96 13.98 44.08 13.98 44.19 14.11 44.3 14.25 44.41 14.31 44.53 14.31 44.64 14.31 44.75 14.31 44.86 14.31 44.98 14.31 45.09 14.31 45.2 14.31 45.31 14.25 45.43 14.44 45.54 15.17 45.65 15.23 45.76 15.3 45.88 15.37 45.99 15.37 46.1 15.3 46.21 15.3 46.33 14.97 46.44 15.17 46.55 15.23 46.66 15.37 46.78 15.5 46.89 15.43 47 15.37 47.11 15.23 47.22 15.04 47.34 14.84 47.45 14.51 47.56 14.31 47.67 14.31 47.79 14.25 47.9 14.44 48.01 14.71 48.12 14.97 48.24 15.23 48.35 15.17 48.46 15.63 48.57 15.6 48.69 15.43 48.8 15.1 48.91 14.84 49.02 14.84 49.14 14.84 49.25 14.58 49.36 14.31 49.47 14.44 49.59 14.64 49.7 14.9 49.81 15.1 49.92 15.23 50.04 15.37 50.15 15.63 50.26 15.98 50.37 16.1 50.49 16.29 50.6 16.41 50.71 16.5 50.82 16.56 50.94 16.62 51.05 16.62 51.16 16.59 51.27 16.45 51.39 16.45 51.5 16.35 51.61 16.32 51.72 16.32 51.83 15.98 51.95 15.3 52.06 15.82 52.17 15.98 52.28 16.04 52.4 16.04 52.51 16.14 52.62 16.23 52.73 16.38 52.85 16.59 52.96 16.74 53.07 16.89 53.18 16.89 53.3 16.95 53.41 16.86 53.52 16.41 53.63 15.85 53.75 15.23 53.86 15.43 53.97 15.69 54.08 16.1 54.2 16.23 54.31 16.23 54.42 16.2 54.53 16.08 54.65 15.73 54.76 15.54 54.87 15.6 54.98 15.37 55.1 15.1 55.21 14.71 55.32 14.18 55.43 13.46 55.55 12.93 55.66 13.06 55.77 13.39 55.88 13.85 56 14.18 56.11 14.64 56.22 14.9 56.33 14.71 56.44 13.79 56.56 11.68 56.67 9.77 56.78 6.67 56.89 2.13 57.01 -1.3 57.12 2.66 57.23 6.01 57.34 7.46 57.46 7 57.57 5.88 57.68 3.18 57.79 -0.24 57.91 -3.21 58.02 -5.97 58.13 -7.95 58.24 -10.71 58.36 -12.29 58.47 -12.49 58.58 -13.55 58.69 -15.59 58.81 -16.05 58.92 -19.54 59.03 -13.94 59.14 -9.07 59.26 -6.24 59.37 -5.12 59.48 -5.51 59.59 -5.25 59.71 -7.62 59.82 -8.28 59.93 -6.63 60.04 -9.07 60.16 -6.3 60.27 -6.17 60.38 -7.68 60.49 -8.8 60.61 -10.52 60.72 -12.89 60.83 -15.52 60.94 -22.9 61.05 -22.5 61.17 -18.09 61.28 -18.55 61.39 -23.49 61.5 -22.04 61.62 -16.25 61.73 -14.47 61.84 -23.49 61.95 -28.69 62.07 -36.27 62.18 -35.21 62.29 -31.13 62.4 -26.19 62.52 -21.32 62.63 -19.41 62.74 -17.89 62.85 -18.75 62.97 -22.3 63.08 -19.74 63.19 -16.77 63.3 -17.83 63.42 -18.09 63.53 -22.3 63.64 -28.17 63.75 -32.51 63.87 -44.43 63.98 -47.73 64.09 -52.34 64.2 -58.92 64.32 -58.92 64.43 -60.24 64.54 -63.53 64.65 -65.51 64.77 -73.41 64.88 -80.65 64.99 -78.68 65.1 -73.41 65.22 -70.12 65.33 -63.53 65.44 -58.92 65.55 -55.63 65.67 -47.07 65.78 -40.22 65.89 -37.06 66 -34.23 66.11 -31.92 66.23 -31.2 66.34 -29.15 66.45 -26.52 66.56 -25.86 66.68 -25.01 66.79 -24.61 66.9 -23.23 67.01 -20.92 67.13 -18.81 67.24 -17.37 67.35 -15.46 67.46 -14.6 67.58 -13.88 67.69 -14.4 67.8 -19.14 67.91 -22.17 68.03 -22.7 68.14 -22.37 68.25 -21.25 68.36 -19.47 68.48 -18.95 68.59 -18.68 68.7 -20.46 68.81 -21.91 68.93 -23.23 69.04 -21.71 69.15 -22.77 69.26 -22.7 69.38 -21.91 69.49 -20.79 69.6 -20.53 69.71 -19.41 69.83 -18.88 69.94 -18.22 70.05 -17.56 70.16 -17.17 70.28 -17.5 70.39 -16.97 70.5 -17.69 70.61 -18.81 70.72 -21.91 70.84 -22.96 70.95 -25.86 71.06 -24.68 71.17 -23.62 71.29 -24.08 71.4 -22.3 71.51 -22.04 71.62 -20.99 71.74 -18.68 71.85 -18.22 71.96 -18.55 72.07 -18.68 72.19 -18.29 72.3 -17.89 72.41 -17.96 72.52 -18.22 72.64 -18.02 72.75 -16.71 72.86 -15.92 72.97 -18.16 73.09 -22.63 73.2 -23.16 73.31 -22.57 73.42 -21.78 73.54 -19.47 73.65 -16.9 73.76 -14.2 73.87 -12.16 73.99 -10.78 74.1 -9.86 74.21 -8.8 74.32 -8.08 74.44 -8.8 74.55 -8.8 74.66 -8.21 74.77 -6.96 74.89 -4.79 75 -4.79 75.11 -5.84 75.22 -7.03 75.33 -7.95 75.45 -8.28 75.56 -7.29 75.67 -5.18 75.78 -2.94 75.9 -2.09 76.01 -1.49 76.12 -1.49 76.23 -1.56 76.35 -1.36 76.46 -1.82 76.57 -2.09 76.68 -1.95 76.8 -2.02 76.91 -1.03 77.02 0.48 77.13 1.47 77.25 2.59 77.36 2.85 77.47 3.45 77.58 3.91 77.7 4.17 77.81 4.43 77.92 4.89 78.03 5.09 78.15 5.49 78.26 5.75 78.37 5.95 78.48 6.21 78.6 6.34 78.71 6.67 78.82 6.8 78.93 7 79.05 7.2 79.16 7.46 79.27 7.59 79.38 7.59 79.5 7.59 79.61 7.59 79.72 8.06 79.83 8.38 79.94 8.71 80.06 8.91 80.17 9.18 80.28 9.37 80.39 9.57 80.51 9.83 80.62 9.97 80.73 10.16 80.84 10.56 80.96 10.49 81.07 10.62 81.18 10.82 81.29 10.29 81.41 10.43 81.52 10.49 81.63 10.56 81.74 10.82 81.86 10.95 81.97 11.15 82.08 11.32" class="primitive"/>
            </g>
          </g>
        </g>
        <g stroke-width="0.3" fill="#000000" fill-opacity="0.000" class="geometry" id="img-78a85d3d-24">
          <g class="color_RGB{N0f8}(1.0,0.647,0.0)" stroke-dasharray="none" stroke="#FFA500" id="img-78a85d3d-25">
            <g transform="translate(110.81,120.96)" id="img-78a85d3d-26">
              <path fill="none" d="M-82.08,12.5 L -81.97 12.97 -81.86 13.44 -81.74 13.81 -81.63 14.08 -81.52 14.27 -81.41 14.42 -81.29 14.51 -81.18 14.62 -81.07 14.73 -80.96 14.83 -80.84 14.57 -80.73 14.63 -80.62 14.79 -80.51 14.95 -80.39 15.09 -80.28 15.21 -80.17 15.31 -80.06 15.39 -79.94 15.47 -79.83 15.55 -79.72 15.62 -79.61 15.68 -79.5 15.75 -79.38 14.99 -79.27 14.37 -79.16 14.17 -79.05 14.47 -78.93 14.86 -78.82 14.98 -78.71 15.19 -78.6 15.39 -78.48 15.27 -78.37 14.18 -78.26 13.64 -78.15 13.24 -78.03 12.9 -77.92 13.4 -77.81 14.01 -77.7 14.49 -77.58 14.74 -77.47 14.71 -77.36 14.87 -77.25 15.06 -77.13 15.23 -77.02 15.36 -76.91 15.47 -76.8 15.56 -76.68 15.6 -76.57 15.54 -76.46 15.59 -76.35 15.19 -76.23 15.25 -76.12 15.43 -76.01 15.61 -75.9 15.76 -75.78 15.87 -75.67 15.95 -75.56 15.97 -75.45 15.22 -75.33 10.23 -75.22 9.66 -75.11 10.84 -75 12.06 -74.89 13.1 -74.77 13.81 -74.66 14.27 -74.55 14.51 -74.44 14.56 -74.32 14.66 -74.21 14.33 -74.1 14.39 -73.99 14.61 -73.87 14.83 -73.76 15 -73.65 15.14 -73.54 15.25 -73.42 15.35 -73.31 15.43 -73.2 15.51 -73.09 15.58 -72.97 15.64 -72.86 15.71 -72.75 15.78 -72.64 15.83 -72.52 15.51 -72.41 15.34 -72.3 15.45 -72.19 15.35 -72.07 14.82 -71.96 14.77 -71.85 14.65 -71.74 14.71 -71.62 14.95 -71.51 15.07 -71.4 15.2 -71.29 15.18 -71.17 14.86 -71.06 14.57 -70.95 13.82 -70.84 13.84 -70.72 13.38 -70.61 13.72 -70.5 14.22 -70.39 12.54 -70.28 11.58 -70.16 11.68 -70.05 12.13 -69.94 12.8 -69.83 12.68 -69.71 9.43 -69.6 8.76 -69.49 9.55 -69.38 10.78 -69.26 11.84 -69.15 12.58 -69.04 11.76 -68.93 10 -68.81 5.84 -68.7 6.27 -68.59 7.9 -68.48 9.5 -68.36 9.85 -68.25 8.03 -68.14 8.1 -68.03 8.91 -67.91 9.82 -67.8 10.54 -67.69 11.1 -67.58 11.55 -67.46 11.88 -67.35 11.67 -67.24 11.31 -67.13 10.75 -67.01 10.99 -66.9 11.51 -66.79 11.45 -66.68 9.67 -66.56 7.12 -66.45 5.94 -66.34 6.6 -66.23 7.97 -66.11 7.64 -66 7.63 -65.89 7.14 -65.78 7.95 -65.67 8.67 -65.55 9.24 -65.44 5.93 -65.33 4.64 -65.22 1.73 -65.1 1.25 -64.99 -2.38 -64.88 -5.27 -64.77 -4.91 -64.65 -2.03 -64.54 -3.15 -64.43 -7.53 -64.32 -7.95 -64.2 -7.78 -64.09 -7.64 -63.98 -7.5 -63.87 -8.69 -63.75 -6.62 -63.64 -5.5 -63.53 -8.16 -63.42 -8.75 -63.3 -6.93 -63.19 -4.68 -63.08 -2.49 -62.97 -1.34 -62.85 -0.14 -62.74 0.65 -62.63 0.6 -62.52 0.58 -62.4 0.51 -62.29 0.28 -62.18 -2.83 -62.07 -6.77 -61.95 -9.26 -61.84 -9.27 -61.73 -7.95 -61.62 -5.85 -61.5 -3.49 -61.39 -6.3 -61.28 -7.97 -61.17 -11.33 -61.05 -11.66 -60.94 -10.61 -60.83 -9.91 -60.72 -11.58 -60.61 -12.04 -60.49 -10.39 -60.38 -10.22 -60.27 -11.99 -60.16 -12.89 -60.04 -13.18 -59.93 -15.83 -59.82 -15.54 -59.71 -14.3 -59.59 -14.9 -59.48 -19.45 -59.37 -22.33 -59.26 -19.73 -59.14 -16.44 -59.03 -15.84 -58.92 -16.46 -58.81 -15.21 -58.69 -15.92 -58.58 -19.02 -58.47 -25.48 -58.36 -24.04 -58.24 -21.23 -58.13 -20.38 -58.02 -20.21 -57.91 -18.94 -57.79 -17.35 -57.68 -15.76 -57.57 -21.62 -57.46 -22.24 -57.34 -21.88 -57.23 -22.77 -57.12 -22.6 -57.01 -20.79 -56.89 -18.14 -56.78 -15.83 -56.67 -19.81 -56.56 -21 -56.44 -23.29 -56.33 -23.86 -56.22 -22.98 -56.11 -20.48 -56 -21.51 -55.88 -23.14 -55.77 -27.82 -55.66 -27.56 -55.55 -23.42 -55.43 -19.08 -55.32 -15.64 -55.21 -14.56 -55.1 -16 -54.98 -15.14 -54.87 -22.46 -54.76 -30.44 -54.65 -29.51 -54.53 -26.23 -54.42 -26.83 -54.31 -29.4 -54.2 -29 -54.08 -28.3 -53.97 -29.09 -53.86 -26.19 -53.75 -22.9 -53.63 -21.36 -53.52 -20.57 -53.41 -19.92 -53.3 -17.94 -53.18 -16.59 -53.07 -14.58 -52.96 -14.03 -52.85 -15.23 -52.73 -16.89 -52.62 -19.86 -52.51 -22.54 -52.4 -24.75 -52.28 -24.24 -52.17 -22.69 -52.06 -29.06 -51.95 -29.81 -51.83 -25.83 -51.72 -22.21 -51.61 -21.24 -51.5 -22.74 -51.39 -21.24 -51.27 -18.25 -51.16 -15.38 -51.05 -13.1 -50.94 -12.43 -50.82 -14.11 -50.71 -22.86 -50.6 -22.51 -50.49 -19.6 -50.37 -16.07 -50.26 -14.13 -50.15 -12.14 -50.04 -10.28 -49.92 -8.74 -49.81 -7.5 -49.7 -6.47 -49.59 -5.59 -49.47 -4.82 -49.36 -4.23 -49.25 -5.5 -49.14 -4.97 -49.02 -3.94 -48.91 -2.87 -48.8 -1.92 -48.69 -1.11 -48.57 -0.44 -48.46 -0.3 -48.35 0.24 -48.24 0.88 -48.12 1.51 -48.01 -3.56 -47.9 -3.8 -47.79 -3.71 -47.67 -2.47 -47.56 -1.5 -47.45 -0.56 -47.34 0.53 -47.22 -0.87 -47.11 -0.23 -47 0.96 -46.89 -0.17 -46.78 0.48 -46.66 1.66 -46.55 1.94 -46.44 0.98 -46.33 -2.46 -46.21 -7.81 -46.1 -6.77 -45.99 -3.87 -45.88 -1.14 -45.76 0.9 -45.65 2.28 -45.54 3.24 -45.43 3.94 -45.31 4.5 -45.2 4.97 -45.09 5.4 -44.98 5.8 -44.86 6.18 -44.75 6.54 -44.64 6.9 -44.53 7.22 -44.41 7.55 -44.3 7.87 -44.19 7.92 -44.08 8.15 -43.96 8.49 -43.85 8.28 -43.74 8.56 -43.63 8.97 -43.51 9.37 -43.4 9.72 -43.29 10.01 -43.18 10.24 -43.06 9.91 -42.95 10.02 -42.84 10.22 -42.73 10.57 -42.61 10.93 -42.5 11.24 -42.39 11.5 -42.28 11.73 -42.17 11.93 -42.05 12.13 -41.94 12.31 -41.83 12.39 -41.72 12.46 -41.6 12.63 -41.49 12.82 -41.38 13.01 -41.27 13.18 -41.15 13.33 -41.04 13.48 -40.93 13.61 -40.82 13.75 -40.7 13.87 -40.59 13.98 -40.48 14.1 -40.37 14.21 -40.25 14.31 -40.14 14.41 -40.03 14.43 -39.92 13.33 -39.8 13.35 -39.69 13.7 -39.58 14.07 -39.47 14.37 -39.35 14.59 -39.24 14.72 -39.13 14.84 -39.02 14.95 -38.9 15.05 -38.79 15.15 -38.68 15.23 -38.57 15.32 -38.45 15.39 -38.34 15.47 -38.23 15.54 -38.12 15.61 -38 15.67 -37.89 15.74 -37.78 15.8 -37.67 15.85 -37.55 15.91 -37.44 15.97 -37.33 16.03 -37.22 16.09 -37.11 16.14 -36.99 16.19 -36.88 16.24 -36.77 16.29 -36.66 16.33 -36.54 16.38 -36.43 16.42 -36.32 16.46 -36.21 16.5 -36.09 16.54 -35.98 16.56 -35.87 16.59 -35.76 16.01 -35.64 12.57 -35.53 12.46 -35.42 13.26 -35.31 14.01 -35.19 14.3 -35.08 14.09 -34.97 12.89 -34.86 12.24 -34.74 12.75 -34.63 13.5 -34.52 14.13 -34.41 14.55 -34.29 14.63 -34.18 14.54 -34.07 14.37 -33.96 12.89 -33.84 12.74 -33.73 13.16 -33.62 13.69 -33.51 14.16 -33.39 14.48 -33.28 14.68 -33.17 14.67 -33.06 14.78 -32.94 14.77 -32.83 13.85 -32.72 13.9 -32.61 14.24 -32.5 14.59 -32.38 14.86 -32.27 14.92 -32.16 15.03 -32.05 15.09 -31.93 15.21 -31.82 15.34 -31.71 15.45 -31.6 15.54 -31.48 15.63 -31.37 15.7 -31.26 15.77 -31.15 15.83 -31.03 15.9 -30.92 15.95 -30.81 16.01 -30.7 16.06 -30.58 16.12 -30.47 16.03 -30.36 16.05 -30.25 16.13 -30.13 16.21 -30.02 16.14 -29.91 15.96 -29.8 15.73 -29.68 15.28 -29.57 14.08 -29.46 11.19 -29.35 8.32 -29.23 8.25 -29.12 9.54 -29.01 10.37 -28.9 9.77 -28.78 10.6 -28.67 11.57 -28.56 12.1 -28.45 12.58 -28.33 12.26 -28.22 10.24 -28.11 10.29 -28 9.6 -27.89 6.64 -27.77 6.26 -27.66 7.63 -27.55 9.15 -27.44 9.52 -27.32 10.24 -27.21 10.89 -27.1 11.41 -26.99 6.71 -26.87 1.04 -26.76 -2.15 -26.65 -0.03 -26.54 0.3 -26.42 -0.47 -26.31 -1.09 -26.2 -4.73 -26.09 -5.69 -25.97 -3 -25.86 -3.6 -25.75 -5.94 -25.64 -6.85 -25.52 -8.26 -25.41 -10.16 -25.3 -8.44 -25.19 -7.22 -25.07 -5.54 -24.96 -3.7 -24.85 -1.74 -24.74 -0.7 -24.62 0.39 -24.51 -0.18 -24.4 -0.73 -24.29 -0.5 -24.17 0.27 -24.06 0.92 -23.95 1.19 -23.84 2.11 -23.72 3.07 -23.61 3.09 -23.5 0.98 -23.39 1.42 -23.28 2.59 -23.16 3.73 -23.05 3.72 -22.94 3.31 -22.83 3.84 -22.71 4.09 -22.6 1.72 -22.49 -0.84 -22.38 -1.79 -22.26 -4.76 -22.15 -4.75 -22.04 -6.47 -21.93 -7.38 -21.81 -5.62 -21.7 -6.78 -21.59 -4.68 -21.48 -2.22 -21.36 -0.23 -21.25 1.08 -21.14 -1.24 -21.03 -3.92 -20.91 -8.73 -20.8 -10.03 -20.69 -12.92 -20.58 -12.39 -20.46 -11.86 -20.35 -11.11 -20.24 -12.24 -20.13 -14 -20.01 -13.4 -19.9 -11.21 -19.79 -11.68 -19.68 -11.42 -19.56 -11.04 -19.45 -13.74 -19.34 -14.25 -19.23 -13.81 -19.11 -11.29 -19 -9.27 -18.89 -8.72 -18.78 -10.14 -18.67 -9.57 -18.55 -8.4 -18.44 -13.59 -18.33 -15.61 -18.22 -15.36 -18.1 -14.56 -17.99 -18.3 -17.88 -17.93 -17.77 -17.26 -17.65 -15.4 -17.54 -15.77 -17.43 -16.34 -17.32 -15.02 -17.2 -13.47 -17.09 -11.11 -16.98 -10.35 -16.87 -10.31 -16.75 -13.71 -16.64 -18.66 -16.53 -21.96 -16.42 -24.38 -16.3 -27.63 -16.19 -28.82 -16.08 -26.19 -15.97 -22.53 -15.85 -21.75 -15.74 -25.73 -15.63 -29.29 -15.52 -26.59 -15.4 -23.18 -15.29 -20.73 -15.18 -23.57 -15.07 -25.57 -14.95 -25.1 -14.84 -22.41 -14.73 -20.15 -14.62 -19.91 -14.5 -22.37 -14.39 -23.64 -14.28 -25.12 -14.17 -23.93 -14.06 -24.46 -13.94 -24.1 -13.83 -25.21 -13.72 -24.81 -13.61 -24.66 -13.49 -23.04 -13.38 -20.77 -13.27 -20.29 -13.16 -26.13 -13.04 -27.85 -12.93 -29.16 -12.82 -27.15 -12.71 -25.31 -12.59 -25.97 -12.48 -26.92 -12.37 -24.69 -12.26 -21.85 -12.14 -23.55 -12.03 -21.39 -11.92 -18.34 -11.81 -16.03 -11.69 -14.84 -11.58 -13.8 -11.47 -12.32 -11.36 -11.33 -11.24 -10.16 -11.13 -8.99 -11.02 -8.59 -10.91 -9.87 -10.79 -12.75 -10.68 -12 -10.57 -11.44 -10.46 -10.27 -10.34 -8.4 -10.23 -6.67 -10.12 -5.32 -10.01 -4.67 -9.89 -7.6 -9.78 -14.02 -9.67 -18.59 -9.56 -25.47 -9.44 -25.19 -9.33 -20.95 -9.22 -15.92 -9.11 -11.89 -9 -10.95 -8.88 -9.94 -8.77 -10.37 -8.66 -11.81 -8.55 -10.52 -8.43 -9.22 -8.32 -8.03 -8.21 -6.71 -8.1 -5.63 -7.98 -4.52 -7.87 -3.43 -7.76 -2.47 -7.65 -1.65 -7.53 -0.94 -7.42 -0.3 -7.31 0.23 -7.2 0.79 -7.08 1.33 -6.97 1.83 -6.86 2.33 -6.75 2.82 -6.63 3.3 -6.52 3.75 -6.41 4.19 -6.3 4.61 -6.18 5.03 -6.07 5.43 -5.96 5.82 -5.85 6.19 -5.73 6.56 -5.62 6.91 -5.51 7.25 -5.4 7.58 -5.28 7.9 -5.17 7.34 -5.06 2.44 -4.95 -0.63 -4.83 -3.26 -4.72 -1.79 -4.61 0.82 -4.5 3.11 -4.39 4.76 -4.27 5.8 -4.16 6.54 -4.05 7.1 -3.94 7.55 -3.82 7.89 -3.71 8.22 -3.6 8.54 -3.49 8.84 -3.37 9.13 -3.26 9.4 -3.15 9.67 -3.04 9.84 -2.92 9.95 -2.81 10.19 -2.7 10.46 -2.59 10.68 -2.47 10.78 -2.36 10.97 -2.25 11.22 -2.14 11.47 -2.02 11.7 -1.91 11.91 -1.8 11.9 -1.69 11.6 -1.57 11.77 -1.46 12.08 -1.35 12.37 -1.24 12.63 -1.12 12.84 -1.01 13.02 -0.9 13.19 -0.79 13.34 -0.67 13.48 -0.56 13.62 -0.45 13.75 -0.34 13.86 -0.22 13.72 -0.11 13.82 -0 13.99 0.11 14.15 0.22 14.31 0.34 14.44 0.45 14.14 0.56 14.21 0.67 14.39 0.79 14.58 0.9 14.74 1.01 14.86 1.12 14.97 1.24 15.07 1.35 15.16 1.46 15.25 1.57 15.33 1.69 15.41 1.8 15.47 1.91 15.54 2.02 15.61 2.14 15.68 2.25 15.75 2.36 15.81 2.47 15.87 2.59 15.77 2.7 15.68 2.81 15.75 2.92 15.87 3.04 15.97 3.15 16.02 3.26 16.01 3.37 16.05 3.49 16.03 3.6 16.06 3.71 16.15 3.82 15.9 3.94 15.94 4.05 16.05 4.16 15.72 4.27 15.79 4.39 15.96 4.5 16.13 4.61 16.26 4.72 16.35 4.83 16.38 4.95 16.43 5.06 16.48 5.17 16.5 5.28 16.49 5.4 16.53 5.51 16.59 5.62 16.53 5.73 16.41 5.85 16.29 5.96 16.25 6.07 16.36 6.18 16.49 6.3 15.72 6.41 15.72 6.52 15.95 6.63 16.19 6.75 16.37 6.86 16.5 6.97 16.58 7.08 16.64 7.2 16.69 7.31 16.73 7.42 16.76 7.53 16.79 7.65 16.78 7.76 16.79 7.87 16.82 7.98 16.79 8.1 16.82 8.21 16.87 8.32 16.92 8.43 16.95 8.55 16.97 8.66 16.99 8.77 17.01 8.88 16.26 9 14.85 9.11 14.43 9.22 14.73 9.33 15.27 9.44 15.73 9.56 16.03 9.67 16.21 9.78 15.58 9.89 14.39 10.01 10.92 10.12 10.61 10.23 11.44 10.34 12.47 10.46 13.43 10.57 14.1 10.68 14.55 10.79 14.84 10.91 15.03 11.02 15.1 11.13 14.87 11.24 14.93 11.36 14.95 11.47 15.08 11.58 15.24 11.69 15.38 11.81 15.49 11.92 15.3 12.03 15.26 12.14 15.38 12.26 15.51 12.37 15.41 12.48 14.93 12.59 14.67 12.71 13.65 12.82 11.49 12.93 10.41 13.04 10.9 13.16 10.58 13.27 10.28 13.38 7.82 13.49 8.1 13.61 9.29 13.72 10.12 13.83 11.12 13.94 11.93 14.06 10.99 14.17 10.36 14.28 8.3 14.39 8.82 14.5 9.36 14.62 9.21 14.73 8.27 14.84 8.05 14.95 0.47 15.07 -4.58 15.18 -2.56 15.29 0.75 15.4 3.76 15.52 5.92 15.63 5.91 15.74 6.58 15.85 7.44 15.97 8.2 16.08 8.76 16.19 6.8 16.3 6.88 16.42 7.11 16.53 4.31 16.64 -9.49 16.75 -17.92 16.87 -17.45 16.98 -15.61 17.09 -12.52 17.2 -10.11 17.32 -8.45 17.43 -7.86 17.54 -6.85 17.65 -6.24 17.77 -5.37 17.88 -4.26 17.99 -7.95 18.1 -7.48 18.22 -7.46 18.33 -7.62 18.44 -6.1 18.55 -9.32 18.67 -9.87 18.78 -9.04 18.89 -6.51 19 -4.29 19.11 -2.51 19.23 -1.41 19.34 -1.13 19.45 -2.27 19.56 -7.8 19.68 -10.69 19.79 -11.13 19.9 -12.45 20.01 -15.3 20.13 -15.18 20.24 -14.53 20.35 -15.49 20.46 -16.16 20.58 -17.72 20.69 -21.22 20.8 -21.3 20.91 -20.22 21.03 -20.37 21.14 -18.66 21.25 -18.37 21.36 -18.06 21.48 -16.39 21.59 -24.39 21.7 -23.69 21.81 -21.21 21.93 -19.58 22.04 -17.87 22.15 -17.54 22.26 -17.75 22.38 -16.91 22.49 -18.54 22.6 -17.57 22.71 -15.63 22.83 -14.34 22.94 -20.56 23.05 -23.12 23.16 -21.41 23.28 -29.1 23.39 -29.96 23.5 -25.44 23.61 -21.16 23.72 -20.91 23.84 -20.79 23.95 -18.97 24.06 -17.3 24.17 -20.11 24.29 -22.19 24.4 -21.24 24.51 -19.55 24.62 -24.18 24.74 -27.19 24.85 -27.82 24.96 -25.29 25.07 -20.95 25.19 -25.26 25.3 -31.55 25.41 -35.77 25.52 -32.68 25.64 -28.33 25.75 -25.43 25.86 -22.21 25.97 -25.01 26.09 -23.97 26.2 -21.82 26.31 -19.15 26.42 -17.44 26.54 -18.02 26.65 -18.77 26.76 -19.13 26.87 -20.33 26.99 -20.83 27.1 -21.98 27.21 -22.71 27.32 -21.79 27.44 -20.5 27.55 -22.97 27.66 -26.04 27.77 -27.53 27.89 -27.58 28 -27.06 28.11 -24.45 28.22 -22.9 28.33 -21.46 28.45 -19.05 28.56 -16.6 28.67 -18.02 28.78 -16.9 28.9 -16.85 29.01 -17.9 29.12 -17.58 29.23 -15.92 29.35 -13.64 29.46 -11.51 29.57 -11.1 29.68 -15.96 29.8 -17.29 29.91 -18.41 30.02 -20.7 30.13 -21.65 30.25 -20.14 30.36 -17.68 30.47 -16.23 30.58 -14.66 30.7 -13.84 30.81 -17.08 30.92 -22.58 31.03 -21.65 31.15 -18.1 31.26 -16.55 31.37 -13.9 31.48 -14.68 31.6 -16.16 31.71 -17.54 31.82 -17.04 31.93 -14.3 32.05 -11.5 32.16 -9.26 32.27 -8.82 32.38 -12.44 32.5 -20.74 32.61 -20.17 32.72 -18.41 32.83 -15.22 32.94 -12.21 33.06 -9.69 33.17 -7.75 33.28 -6.3 33.39 -5.19 33.51 -4.29 33.62 -3.68 33.73 -4.07 33.84 -3.92 33.96 -4.22 34.07 -3.41 34.18 -2.4 34.29 -2.2 34.41 -1.53 34.52 -0.66 34.63 0.2 34.74 0.96 34.86 1.62 34.97 2.2 35.08 2.72 35.19 3.22 35.31 3.68 35.42 4.13 35.53 4.56 35.64 4.97 35.76 5.36 35.87 5.6 35.98 5.7 36.09 4.99 36.21 4.36 36.32 4.79 36.43 5.59 36.54 5.88 36.66 5.99 36.77 6.54 36.88 7.15 36.99 7.38 37.11 7.81 37.22 8.25 37.33 8.14 37.44 8.1 37.55 8.41 37.67 8.72 37.78 9.16 37.89 9.57 38 9.93 38.12 10.23 38.23 10.5 38.34 10.75 38.45 10.95 38.57 11.16 38.68 11.31 38.79 11.51 38.9 11.62 39.02 10.76 39.13 10.83 39.24 11.24 39.35 10.54 39.47 10.77 39.58 11.28 39.69 11.77 39.8 12.15 39.92 12.39 40.03 12.62 40.14 12.83 40.25 13.01 40.37 13.17 40.48 13.31 40.59 13.44 40.7 13.58 40.82 13.71 40.93 13.77 41.04 13.89 41.15 14.03 41.27 14.16 41.38 14.28 41.49 14.39 41.6 14.5 41.72 14.6 41.83 14.7 41.94 14.79 42.05 14.89 42.17 14.98 42.28 15.07 42.39 15.15 42.5 15.24 42.61 15.32 42.73 15.39 42.84 15.47 42.95 15.54 43.06 15.61 43.18 15.67 43.29 15.71 43.4 15.77 43.51 15.83 43.63 15.89 43.74 15.96 43.85 16 43.96 15.6 44.08 15.48 44.19 15.62 44.3 15.73 44.41 15.87 44.53 15.97 44.64 16.08 44.75 16.16 44.86 16.23 44.98 16.29 45.09 16.04 45.2 15.67 45.31 15.75 45.43 15.82 45.54 15.98 45.65 16.14 45.76 16.06 45.88 15.41 45.99 15.46 46.1 15.7 46.21 15.92 46.33 14.76 46.44 14.79 46.55 15.08 46.66 15.3 46.78 15.57 46.89 14.39 47 14.11 47.11 14.26 47.22 14.35 47.34 14.64 47.45 14.19 47.56 14.43 47.67 14.82 47.79 15.13 47.9 14.59 48.01 14.35 48.12 14.55 48.24 14.89 48.35 15.18 48.46 14.42 48.57 13.41 48.69 12.73 48.8 13.17 48.91 13.82 49.02 14.01 49.14 13.77 49.25 13.9 49.36 14.26 49.47 14.44 49.59 13.59 49.7 13.73 49.81 13.5 49.92 13.56 50.04 13.92 50.15 14.16 50.26 14.44 50.37 14.7 50.49 14.9 50.6 14.53 50.71 14.05 50.82 13.5 50.94 13.73 51.05 14.15 51.16 14.54 51.27 14.83 51.39 15.02 51.5 15.16 51.61 13.93 51.72 9.69 51.83 8.92 51.95 9.19 52.06 9.31 52.17 10.11 52.28 11.2 52.4 12.14 52.51 12.8 52.62 12.95 52.73 13.03 52.85 13.2 52.96 13.45 53.07 13.3 53.18 13.05 53.3 13.24 53.41 13.5 53.52 13.45 53.63 13.67 53.75 13.92 53.86 14.09 53.97 14.23 54.08 14.18 54.2 14.06 54.31 14.06 54.42 12.85 54.53 12.91 54.65 12.31 54.76 11.06 54.87 11.07 54.98 10.42 55.1 10.38 55.21 10.49 55.32 10.88 55.43 8.41 55.55 2.92 55.66 3.3 55.77 5.49 55.88 7.67 56 8.43 56.11 0.69 56.22 -6.74 56.33 -7.79 56.44 -4.15 56.56 -0.17 56.67 2.87 56.78 0.77 56.89 -4.12 57.01 -6.55 57.12 -5.4 57.23 -3.35 57.34 -2.56 57.46 -1.77 57.57 -2.39 57.68 -4.31 57.79 -6.05 57.91 -11.79 58.02 -11.48 58.13 -9.67 58.24 -8.59 58.36 -14.85 58.47 -16.34 58.58 -16.15 58.69 -13 58.81 -9.59 58.92 -7.7 59.03 -6.33 59.14 -4.7 59.26 -4.66 59.37 -5.8 59.48 -4.69 59.59 -4.34 59.71 -8.41 59.82 -12.03 59.93 -12.01 60.04 -10.78 60.16 -13.5 60.27 -15.72 60.38 -16.92 60.49 -17.54 60.61 -19.49 60.72 -18.84 60.83 -15.68 60.94 -13.32 61.05 -14.16 61.17 -15.08 61.28 -14.01 61.39 -13.39 61.5 -18.04 61.62 -19.75 61.73 -22.29 61.84 -22.16 61.95 -21.4 62.07 -19.44 62.18 -17.99 62.29 -16.84 62.4 -16.86 62.52 -16.19 62.63 -14.76 62.74 -17.22 62.85 -19.78 62.97 -18.59 63.08 -19.43 63.19 -19.94 63.3 -22.79 63.42 -22.43 63.53 -20 63.64 -24.59 63.75 -27.95 63.87 -25.83 63.98 -26.02 64.09 -27.3 64.2 -33.33 64.32 -41.78 64.43 -39.1 64.54 -34.64 64.65 -35.25 64.77 -33.74 64.88 -30.87 64.99 -28.69 65.1 -27.7 65.22 -24.71 65.33 -23.72 65.44 -21.06 65.55 -18.44 65.67 -16.7 65.78 -16.11 65.89 -17.21 66 -20.6 66.11 -21.86 66.23 -20.06 66.34 -19.56 66.45 -20.48 66.56 -19.79 66.68 -19.42 66.79 -17.73 66.9 -17.04 67.01 -15.39 67.13 -13.87 67.24 -14.19 67.35 -14.3 67.46 -15.05 67.58 -18.86 67.69 -20.74 67.8 -20.57 67.91 -18.29 68.03 -16.1 68.14 -17.79 68.25 -18.36 68.36 -16.43 68.48 -23.62 68.59 -24.24 68.7 -25.42 68.81 -22.86 68.93 -20.49 69.04 -18.5 69.15 -19.68 69.26 -22.33 69.38 -20.52 69.49 -17.88 69.6 -17.04 69.71 -16.7 69.83 -21.11 69.94 -23.36 70.05 -22.02 70.16 -21.08 70.28 -18.22 70.39 -15.01 70.5 -12.35 70.61 -10.76 70.72 -11.93 70.84 -11.8 70.95 -15.67 71.06 -16.99 71.17 -17.37 71.29 -18.06 71.4 -18.1 71.51 -16.98 71.62 -16.94 71.74 -15.8 71.85 -16.02 71.96 -14.93 72.07 -12.76 72.19 -10.42 72.3 -9.23 72.41 -9.64 72.52 -17.89 72.64 -20.11 72.75 -18.4 72.86 -15.07 72.97 -11.86 73.09 -9.26 73.2 -7.36 73.31 -7.35 73.42 -7.35 73.54 -6.55 73.65 -5.3 73.76 -4.1 73.87 -3.07 73.99 -2.21 74.1 -6.76 74.21 -8.62 74.32 -7.15 74.44 -4.99 74.55 -3.26 74.66 -2.04 74.77 -6.19 74.89 -6.59 75 -4.9 75.11 -2.94 75.22 -1.31 75.33 -0.08 75.45 0.81 75.56 0.28 75.67 -0.93 75.78 -2.27 75.9 -1.46 76.01 -0.03 76.12 1.16 76.23 -5.27 76.35 -5.03 76.46 -2.92 76.57 -0.72 76.68 0.95 76.8 2.15 76.91 3.04 77.02 3.71 77.13 4.26 77.25 4.74 77.36 5.17 77.47 5.43 77.58 5.77 77.7 6.16 77.81 6.56 77.92 6.94 78.03 7.3 78.15 7.62 78.26 7.92 78.37 8.07 78.48 8.37 78.6 8.14 78.71 7.58 78.82 7.69 78.93 8.23 79.05 8.82 79.16 9.32 79.27 9.72 79.38 10.05 79.5 10.34 79.61 10.59 79.72 10.82 79.83 11.05 79.94 11.25 80.06 11.46 80.17 11.66 80.28 10.3 80.39 10.36 80.51 10.84 80.62 11.12 80.73 11.36 80.84 11.71 80.96 12.05 81.07 12.26 81.18 12.47 81.29 12.68 81.41 12.87 81.52 13.04 81.63 13.2 81.74 13.35 81.86 13.49 81.97 13.63 82.08 13.76" class="primitive"/>
            </g>
          </g>
        </g>
      </g>
    </g>
  </g>
  <g class="guide ylabels" font-size="2.82" font-family="'PT Sans Caption','Helvetica Neue','Helvetica',sans-serif" fill="#6C606B" id="img-78a85d3d-27">
    <g transform="translate(25.72,138.72)" id="img-78a85d3d-28">
      <g class="primitive">
        <text text-anchor="end" dy="0.35em">0</text>
      </g>
    </g>
    <g transform="translate(25.72,105.79)" id="img-78a85d3d-29">
      <g class="primitive">
        <text text-anchor="end" dy="0.35em">5.0×10³</text>
      </g>
    </g>
    <g transform="translate(25.72,72.86)" id="img-78a85d3d-30">
      <g class="primitive">
        <text text-anchor="end" dy="0.35em">1.0×10⁴</text>
      </g>
    </g>
    <g transform="translate(25.72,39.93)" id="img-78a85d3d-31">
      <g class="primitive">
        <text text-anchor="end" dy="0.35em">1.5×10⁴</text>
      </g>
    </g>
    <g transform="translate(25.72,7)" id="img-78a85d3d-32">
      <g class="primitive">
        <text text-anchor="end" dy="0.35em">2.0×10⁴</text>
      </g>
    </g>
  </g>
  <g font-size="3.88" font-family="'PT Sans','Helvetica Neue','Helvetica',sans-serif" fill="#564A55" stroke="#000000" stroke-opacity="0.000" id="img-78a85d3d-33">
    <g transform="translate(8.81,70.86)" id="img-78a85d3d-34">
      <g class="primitive">
        <text text-anchor="middle" dy="0.35em" transform="rotate(-90,0, 2)">calibrated</text>
      </g>
    </g>
  </g>
</g>
<defs>
  <clipPath id="img-78a85d3d-4">
    <path d="M26.73,5 L 195 5 195 140.72 26.73 140.72" />
  </clipPath>
</defs>
</svg>
